<svg width="75" height="16" viewBox="0 0 75 16" fill="none" xmlns="http://www.w3.org/2000/svg">
<path d="M4.5 15V2.68H0.2V0.999999H10.7V2.68H6.4V15H4.5ZM15.1792 15.24C14.1926 15.24 13.3059 15.0133 12.5192 14.56C11.7326 14.0933 11.1126 13.4533 10.6592 12.64C10.2192 11.8133 9.99922 10.8667 9.99922 9.8C9.99922 8.68 10.2259 7.71333 10.6792 6.9C11.1326 6.08667 11.7526 5.46 12.5392 5.02C13.3259 4.58 14.2059 4.36 15.1792 4.36C16.1526 4.36 17.0259 4.58 17.7992 5.02C18.5859 5.46 19.2059 6.08667 19.6592 6.9C20.1259 7.7 20.3592 8.65333 20.3592 9.76C20.3592 10.8667 20.1326 11.8333 19.6792 12.66C19.2259 13.4733 18.6059 14.1067 17.8192 14.56C17.0459 15.0133 16.1659 15.24 15.1792 15.24ZM15.1792 13.64C16.2326 13.64 17.0526 13.2867 17.6392 12.58C18.2259 11.86 18.5192 10.9333 18.5192 9.8C18.5192 9.10667 18.3726 8.47333 18.0792 7.9C17.7859 7.31333 17.3859 6.84667 16.8792 6.5C16.3859 6.14 15.8192 5.96 15.1792 5.96C14.1259 5.96 13.3059 6.30667 12.7192 7C12.1326 7.69333 11.8392 8.61333 11.8392 9.76C11.8392 10.4533 11.9859 11.1 12.2792 11.7C12.5726 12.2867 12.9659 12.76 13.4592 13.12C13.9659 13.4667 14.5392 13.64 15.1792 13.64ZM26.1523 15.24C25.5523 15.24 24.9857 15.1133 24.4523 14.86C23.919 14.6067 23.4857 14.2 23.1523 13.64C22.819 13.0667 22.6523 12.3067 22.6523 11.36V4.6H24.4523V11.12C24.4523 11.9333 24.6257 12.56 24.9723 13C25.319 13.4267 25.8257 13.64 26.4923 13.64C27.039 13.64 27.5657 13.5333 28.0723 13.32C28.5923 13.0933 29.0523 12.7933 29.4523 12.42V4.6H31.2523V12.3C31.2523 12.8733 31.3723 13.2533 31.6123 13.44C31.8657 13.6133 32.139 13.7 32.4323 13.7L32.0523 15.1C30.8123 15.1 30.0457 14.6067 29.7523 13.62C29.2857 14.1 28.7457 14.4933 28.1323 14.8C27.519 15.0933 26.859 15.24 26.1523 15.24ZM34.8227 15V4.6H36.5627V6.86C36.736 6.42 36.9693 6.01333 37.2627 5.64C37.556 5.25333 37.9227 4.94667 38.3627 4.72C38.8027 4.48 39.316 4.36 39.9027 4.36C40.1027 4.36 40.3027 4.37333 40.5027 4.4C40.7027 4.41333 40.8693 4.44 41.0027 4.48L40.4627 6.34C40.2093 6.23333 39.9093 6.18 39.5627 6.18C39.0693 6.18 38.596 6.32 38.1427 6.6C37.7027 6.88 37.336 7.31333 37.0427 7.9C36.7627 8.48667 36.6227 9.23333 36.6227 10.14V15H34.8227ZM42.8109 15V4.6H44.6109V15H42.8109ZM43.7109 2.82C43.3643 2.82 43.0643 2.69333 42.8109 2.44C42.5709 2.18667 42.4509 1.89333 42.4509 1.56C42.4509 1.17333 42.5643 0.866666 42.7909 0.639999C43.0176 0.413333 43.3243 0.3 43.7109 0.3C44.0576 0.3 44.3509 0.426666 44.5909 0.68C44.8443 0.92 44.9709 1.21333 44.9709 1.56C44.9709 1.93333 44.8576 2.24 44.6309 2.48C44.4043 2.70667 44.0976 2.82 43.7109 2.82ZM50.6109 15.24C49.8243 15.24 49.1109 15.14 48.4709 14.94C47.8443 14.74 47.3243 14.48 46.9109 14.16L47.6709 12.66C48.0176 12.9533 48.4509 13.2 48.9709 13.4C49.5043 13.5867 50.0709 13.68 50.6709 13.68C51.4176 13.68 51.9776 13.56 52.3509 13.32C52.7376 13.0667 52.9309 12.7467 52.9309 12.36C52.9309 12.08 52.8576 11.8333 52.7109 11.62C52.5776 11.4067 52.3243 11.2 51.9509 11C51.5776 10.7867 51.0376 10.56 50.3309 10.32C49.3576 9.98667 48.6243 9.59333 48.1309 9.14C47.6509 8.67333 47.4109 8.03333 47.4109 7.22C47.4109 6.42 47.7576 5.74667 48.4509 5.2C49.1576 4.64 50.1309 4.36 51.3709 4.36C52.0376 4.36 52.6309 4.43333 53.1509 4.58C53.6709 4.71333 54.1376 4.88667 54.5509 5.1L54.0509 6.58C53.6909 6.36667 53.2776 6.19333 52.8109 6.06C52.3576 5.92667 51.8509 5.86 51.2909 5.86C50.5976 5.86 50.0709 6 49.7109 6.28C49.3509 6.56 49.1709 6.86667 49.1709 7.2C49.1709 7.52 49.3109 7.79333 49.5909 8.02C49.8709 8.24667 50.4176 8.49333 51.2309 8.76C52.5509 9.2 53.4709 9.68667 53.9909 10.22C54.5109 10.7533 54.7709 11.42 54.7709 12.22C54.7709 13.1533 54.3909 13.8933 53.6309 14.44C52.8843 14.9733 51.8776 15.24 50.6109 15.24ZM60.8064 15.24C59.8064 15.24 59.0131 14.9133 58.4264 14.26C57.8531 13.5933 57.5664 12.6467 57.5664 11.42V6.54H55.7664V4.98H57.6064L57.9864 1.7H59.3664V4.98H62.2464V6.54H59.3664V11.56C59.3664 12.3333 59.5264 12.8733 59.8464 13.18C60.1797 13.4867 60.5731 13.64 61.0264 13.64C61.3597 13.64 61.6731 13.5867 61.9664 13.48C62.2731 13.3733 62.5531 13.2467 62.8064 13.1L63.3064 14.54C63.0397 14.7 62.6797 14.8533 62.2264 15C61.7731 15.16 61.2997 15.24 60.8064 15.24ZM69.105 15.24C68.1183 15.24 67.2317 15.0133 66.445 14.56C65.6583 14.0933 65.0383 13.4533 64.585 12.64C64.145 11.8133 63.925 10.8667 63.925 9.8C63.925 8.68 64.1517 7.71333 64.605 6.9C65.0583 6.08667 65.6783 5.46 66.465 5.02C67.2517 4.58 68.1317 4.36 69.105 4.36C70.0783 4.36 70.9517 4.58 71.725 5.02C72.5117 5.46 73.1317 6.08667 73.585 6.9C74.0517 7.7 74.285 8.65333 74.285 9.76C74.285 10.8667 74.0583 11.8333 73.605 12.66C73.1517 13.4733 72.5317 14.1067 71.745 14.56C70.9717 15.0133 70.0917 15.24 69.105 15.24ZM69.105 13.64C70.1583 13.64 70.9783 13.2867 71.565 12.58C72.1517 11.86 72.445 10.9333 72.445 9.8C72.445 9.10667 72.2983 8.47333 72.005 7.9C71.7117 7.31333 71.3117 6.84667 70.805 6.5C70.3117 6.14 69.745 5.96 69.105 5.96C68.0517 5.96 67.2317 6.30667 66.645 7C66.0583 7.69333 65.765 8.61333 65.765 9.76C65.765 10.4533 65.9117 11.1 66.205 11.7C66.4983 12.2867 66.8917 12.76 67.385 13.12C67.8917 13.4667 68.465 13.64 69.105 13.64Z" fill="#22C3CA"/>
</svg>
