<svg width="93" height="20" viewBox="0 0 93 20" fill="none" xmlns="http://www.w3.org/2000/svg">
<path d="M5.625 19V3.6H0.25V1.5H13.375V3.6H8V19H5.625ZM18.974 19.3C17.7407 19.3 16.6324 19.0167 15.649 18.45C14.6657 17.8667 13.8907 17.0667 13.324 16.05C12.774 15.0167 12.499 13.8333 12.499 12.5C12.499 11.1 12.7824 9.89167 13.349 8.875C13.9157 7.85833 14.6907 7.075 15.674 6.525C16.6574 5.975 17.7574 5.7 18.974 5.7C20.1907 5.7 21.2824 5.975 22.249 6.525C23.2324 7.075 24.0074 7.85833 24.574 8.875C25.1574 9.875 25.449 11.0667 25.449 12.45C25.449 13.8333 25.1657 15.0417 24.599 16.075C24.0324 17.0917 23.2574 17.8833 22.274 18.45C21.3074 19.0167 20.2074 19.3 18.974 19.3ZM18.974 17.3C20.2907 17.3 21.3157 16.8583 22.049 15.975C22.7824 15.075 23.149 13.9167 23.149 12.5C23.149 11.6333 22.9657 10.8417 22.599 10.125C22.2324 9.39167 21.7324 8.80833 21.099 8.375C20.4824 7.925 19.774 7.7 18.974 7.7C17.6574 7.7 16.6324 8.13333 15.899 9C15.1657 9.86667 14.799 11.0167 14.799 12.45C14.799 13.3167 14.9824 14.125 15.349 14.875C15.7157 15.6083 16.2074 16.2 16.824 16.65C17.4574 17.0833 18.174 17.3 18.974 17.3ZM32.6904 19.3C31.9404 19.3 31.2321 19.1417 30.5654 18.825C29.8988 18.5083 29.3571 18 28.9404 17.3C28.5238 16.5833 28.3154 15.6333 28.3154 14.45V6H30.5654V14.15C30.5654 15.1667 30.7821 15.95 31.2154 16.5C31.6488 17.0333 32.2821 17.3 33.1154 17.3C33.7988 17.3 34.4571 17.1667 35.0904 16.9C35.7404 16.6167 36.3154 16.2417 36.8154 15.775V6H39.0654V15.625C39.0654 16.3417 39.2154 16.8167 39.5154 17.05C39.8321 17.2667 40.1738 17.375 40.5404 17.375L40.0654 19.125C38.5154 19.125 37.5571 18.5083 37.1904 17.275C36.6071 17.875 35.9321 18.3667 35.1654 18.75C34.3988 19.1167 33.5738 19.3 32.6904 19.3ZM43.5283 19V6H45.7033V8.825C45.92 8.275 46.2117 7.76667 46.5783 7.3C46.945 6.81667 47.4033 6.43333 47.9533 6.15C48.5033 5.85 49.145 5.7 49.8783 5.7C50.1283 5.7 50.3783 5.71667 50.6283 5.75C50.8783 5.76667 51.0867 5.8 51.2533 5.85L50.5783 8.175C50.2617 8.04167 49.8867 7.975 49.4533 7.975C48.8367 7.975 48.245 8.15 47.6783 8.5C47.1283 8.85 46.67 9.39167 46.3033 10.125C45.9533 10.8583 45.7783 11.7917 45.7783 12.925V19H43.5283ZM53.5137 19V6H55.7637V19H53.5137ZM54.6387 3.775C54.2053 3.775 53.8303 3.61667 53.5137 3.3C53.2137 2.98333 53.0637 2.61667 53.0637 2.2C53.0637 1.71667 53.2053 1.33333 53.4887 1.05C53.772 0.766666 54.1553 0.625 54.6387 0.625C55.072 0.625 55.4387 0.783333 55.7387 1.1C56.0553 1.4 56.2137 1.76667 56.2137 2.2C56.2137 2.66667 56.072 3.05 55.7887 3.35C55.5053 3.63333 55.122 3.775 54.6387 3.775ZM63.2637 19.3C62.2803 19.3 61.3887 19.175 60.5887 18.925C59.8053 18.675 59.1553 18.35 58.6387 17.95L59.5887 16.075C60.022 16.4417 60.5637 16.75 61.2137 17C61.8803 17.2333 62.5887 17.35 63.3387 17.35C64.272 17.35 64.972 17.2 65.4387 16.9C65.922 16.5833 66.1637 16.1833 66.1637 15.7C66.1637 15.35 66.072 15.0417 65.8887 14.775C65.722 14.5083 65.4053 14.25 64.9387 14C64.472 13.7333 63.797 13.45 62.9137 13.15C61.697 12.7333 60.7803 12.2417 60.1637 11.675C59.5637 11.0917 59.2637 10.2917 59.2637 9.275C59.2637 8.275 59.697 7.43333 60.5637 6.75C61.447 6.05 62.6637 5.7 64.2137 5.7C65.047 5.7 65.7887 5.79167 66.4387 5.975C67.0887 6.14167 67.672 6.35833 68.1887 6.625L67.5637 8.475C67.1137 8.20833 66.597 7.99167 66.0137 7.825C65.447 7.65833 64.8137 7.575 64.1137 7.575C63.247 7.575 62.5887 7.75 62.1387 8.1C61.6887 8.45 61.4637 8.83333 61.4637 9.25C61.4637 9.65 61.6387 9.99167 61.9887 10.275C62.3387 10.5583 63.022 10.8667 64.0387 11.2C65.6887 11.75 66.8387 12.3583 67.4887 13.025C68.1387 13.6917 68.4637 14.525 68.4637 15.525C68.4637 16.6917 67.9887 17.6167 67.0387 18.3C66.1053 18.9667 64.847 19.3 63.2637 19.3ZM76.008 19.3C74.758 19.3 73.7663 18.8917 73.033 18.075C72.3163 17.2417 71.958 16.0583 71.958 14.525V8.425H69.708V6.475H72.008L72.483 2.375H74.208V6.475H77.808V8.425H74.208V14.7C74.208 15.6667 74.408 16.3417 74.808 16.725C75.2247 17.1083 75.7163 17.3 76.283 17.3C76.6997 17.3 77.0913 17.2333 77.458 17.1C77.8413 16.9667 78.1913 16.8083 78.508 16.625L79.133 18.425C78.7997 18.625 78.3497 18.8167 77.783 19C77.2163 19.2 76.6247 19.3 76.008 19.3ZM86.3813 19.3C85.1479 19.3 84.0396 19.0167 83.0563 18.45C82.0729 17.8667 81.2979 17.0667 80.7313 16.05C80.1813 15.0167 79.9063 13.8333 79.9063 12.5C79.9063 11.1 80.1896 9.89167 80.7563 8.875C81.3229 7.85833 82.0979 7.075 83.0813 6.525C84.0646 5.975 85.1646 5.7 86.3813 5.7C87.5979 5.7 88.6896 5.975 89.6563 6.525C90.6396 7.075 91.4146 7.85833 91.9813 8.875C92.5646 9.875 92.8563 11.0667 92.8563 12.45C92.8563 13.8333 92.5729 15.0417 92.0063 16.075C91.4396 17.0917 90.6646 17.8833 89.6813 18.45C88.7146 19.0167 87.6146 19.3 86.3813 19.3ZM86.3813 17.3C87.6979 17.3 88.7229 16.8583 89.4563 15.975C90.1896 15.075 90.5563 13.9167 90.5563 12.5C90.5563 11.6333 90.3729 10.8417 90.0063 10.125C89.6396 9.39167 89.1396 8.80833 88.5063 8.375C87.8896 7.925 87.1813 7.7 86.3813 7.7C85.0646 7.7 84.0396 8.13333 83.3063 9C82.5729 9.86667 82.2062 11.0167 82.2062 12.45C82.2062 13.3167 82.3896 14.125 82.7563 14.875C83.1229 15.6083 83.6146 16.2 84.2313 16.65C84.8646 17.0833 85.5813 17.3 86.3813 17.3Z" fill="white"/>
</svg>
