<?xml version="1.0" encoding="utf-8"?><svg viewBox="0 0 502.66 502.66" xmlns="http://www.w3.org/2000/svg" xmlns:xlink="http://www.w3.org/1999/xlink"><style>:root>svg{display:none}:root>svg:target{display:block}</style><svg viewBox="0 0 16 18" id="email-icon" xmlns="http://www.w3.org/2000/svg"><path fill-rule="evenodd" clip-rule="evenodd" d="M1.359 17.266a.616.616 0 0 1-.251-.055c-.002 0-.004-.003-.006-.004a.641.641 0 0 1-.198-.142l-.002-.004 4.97-4.45a.382.382 0 0 0 .111-.081c.01-.012.014-.027.023-.04L8 10.705l7.097 6.357-.004.006a.614.614 0 0 1-.147.107c-.02.012-.036.03-.058.04a.623.623 0 0 1-.248.052H1.359ZM.73 8.318l4.418 3.956L.731 16.23V8.318ZM8.031.85l7.238 6.233v.25L10.3 11.781 8.244 9.94a.366.366 0 0 0-.487 0L5.7 11.782.73 7.334v-.25L8.031.85Zm2.82 11.424 4.418-3.957v7.913l-4.418-3.956ZM16 6.914a.368.368 0 0 0-.127-.278L8.27.09a.364.364 0 0 0-.475-.001L.129 6.635a.368.368 0 0 0-.129.28v9.72c0 .17.035.332.091.482l.001.002.001.002a1.342 1.342 0 0 0 .218.373c.16.195.37.345.613.428l.065.02c.118.034.24.058.37.058H14.64c.129 0 .251-.024.37-.058l.067-.02c.242-.084.451-.233.61-.427a1.371 1.371 0 0 0 .22-.377v-.001a1.35 1.35 0 0 0 .092-.482v-9.72Z"/></svg><svg viewBox="0 0 40 40" id="facebook-icon" xmlns="http://www.w3.org/2000/svg"><path fill-rule="evenodd" clip-rule="evenodd" d="M20 40c11.043 0 20-8.953 20-20C40 8.954 31.043 0 20 0 8.953 0 0 8.954 0 20c0 11.047 8.953 20 20 20Zm1.329-22.667h2.838l-.327 3.09h-2.511v8.744h-3.724v-8.744h-1.772v-3.09h1.772v-1.999c0-1.432.694-3.667 3.757-3.667l2.756.01v2.998h-2c-.328 0-.789.16-.789.84v1.818Z"/></svg><svg viewBox="0 0 16 19" id="geo-icon" xmlns="http://www.w3.org/2000/svg"><path fill-rule="evenodd" clip-rule="evenodd" d="M0 7.969C0 3.575 3.588 0 8 0c4.411 0 8 3.575 8 7.969 0 4.315-7.418 10.665-7.734 10.933a.413.413 0 0 1-.532 0C7.418 18.634 0 12.284 0 7.969Zm1 .003c0 3.423 5.704 8.677 7 9.827 1.297-1.15 7-6.404 7-9.827C15 4.128 11.86 1 8 1S1 4.128 1 7.972ZM8.008 4C5.807 4 4.016 5.784 4.016 7.977c0 2.192 1.79 3.976 3.992 3.976S12 10.168 12 7.977C12 5.784 10.21 4 8.008 4ZM5 7.988a2.998 2.998 0 0 0 3 2.988c1.654 0 3-1.34 3-2.988A2.997 2.997 0 0 0 8 5C6.348 5 5 6.34 5 7.988Z"/></svg><svg viewBox="0 0 24 27" id="globe-icon" xmlns="http://www.w3.org/2000/svg"><path fill-rule="evenodd" clip-rule="evenodd" d="M9.952 27a1.12 1.12 0 0 1 0-2.239h2.258v-1.737a13.265 13.265 0 0 1-8.305-3.843A13.243 13.243 0 0 1 0 9.755 13.24 13.24 0 0 1 3.905.328 1.118 1.118 0 0 1 5.489 1.91a11.018 11.018 0 0 0-3.25 7.845 11.02 11.02 0 0 0 3.249 7.843 11.022 11.022 0 0 0 7.842 3.247c2.963 0 5.748-1.153 7.844-3.247.211-.212.492-.327.792-.327a1.115 1.115 0 0 1 1.118 1.12c0 .299-.117.58-.329.791a13.276 13.276 0 0 1-8.307 3.842v1.737h2.26a1.12 1.12 0 1 1 0 2.239H9.953Z"/><path fill-rule="evenodd" clip-rule="evenodd" d="M12.978 2.238c-4.06 0-7.364 3.305-7.364 7.367 0 4.063 3.304 7.368 7.364 7.368 4.063 0 7.37-3.305 7.37-7.368 0-4.062-3.306-7.367-7.37-7.367Zm0 16.973c-5.295 0-9.603-4.31-9.603-9.606S7.683 0 12.978 0c5.298 0 9.609 4.309 9.609 9.605 0 5.297-4.311 9.605-9.609 9.605Z"/></svg><svg viewBox="0 0 502.664 502.664" xml:space="preserve" id="icon" xmlns="http://www.w3.org/2000/svg"><path d="M153.821 358.226 0 274.337v-46.463l153.821-83.414v54.574L46.636 250.523l107.185 53.431v54.272zm26.273 29.358L282.103 115.08h32.227L212.084 387.584h-31.99zm168.749-29.358v-54.272l107.164-52.999-107.164-52.59v-53.927l153.821 83.522v46.183l-153.821 84.083z"/></svg><svg viewBox="0 0 40 40" id="insta-icon" xmlns="http://www.w3.org/2000/svg"><path fill-rule="evenodd" clip-rule="evenodd" d="M32.5 25.73a6.778 6.778 0 0 1-6.77 6.77H14.27a6.779 6.779 0 0 1-6.77-6.77V14.27a6.778 6.778 0 0 1 6.77-6.77h11.46a6.778 6.778 0 0 1 6.77 6.77v11.46ZM20 0C8.955 0 0 8.957 0 20c0 11.047 8.955 20 20 20s20-8.953 20-20C40 8.958 31.045 0 20 0Zm-4.167 20A4.171 4.171 0 0 0 20 24.167 4.171 4.171 0 0 0 24.167 20 4.171 4.171 0 0 0 20 15.833 4.171 4.171 0 0 0 15.833 20Z"/></svg><svg viewBox="0 0 32 32" id="phone-icon" xmlns="http://www.w3.org/2000/svg"><path fill-rule="evenodd" clip-rule="evenodd" d="M16 .711C7.57.711.711 7.57.711 16S7.57 31.289 16 31.289 31.289 24.43 31.289 16 24.43.711 16 .711ZM16 32C7.177 32 0 24.822 0 16 0 7.177 7.177 0 16 0s16 7.177 16 16c0 8.822-7.177 16-16 16Z"/><path fill-rule="evenodd" clip-rule="evenodd" d="M8.653 11.33c-.032 2.917 1.308 5.943 3.688 8.324l.052.053c2.341 2.34 5.34 3.685 8.225 3.685l.097-.002c.212-.17.411-.348.595-.53a7.603 7.603 0 0 0 1.718-2.644c.046-.118-.065-.49-.154-.579-1.147-.513-2.08-.814-3.657-1.165-.227-.004-.44.058-.493.098l-.766 1.22c-.342.555-1.28.619-1.96.12a18.572 18.572 0 0 1-2.08-1.773 18.825 18.825 0 0 1-1.784-2.09c-.286-.392-.41-.87-.329-1.278.058-.296.218-.54.452-.684l1.256-.797c.024-.05.08-.355.063-.451-.344-1.304-.825-2.681-1.205-3.735-.025.006-.267-.097-.462-.097-.055 0-.078.01-.079.01-1 .387-1.89.967-2.646 1.722a7.66 7.66 0 0 0-.53.594Zm11.965 12.773c-3.072 0-6.254-1.42-8.73-3.896-2.6-2.6-4.019-5.866-3.943-9.01l.002-.119.073-.092c.209-.268.43-.52.66-.751a8.333 8.333 0 0 1 2.893-1.883.931.931 0 0 1 .336-.058c.378 0 1 .202 1.13.566.386 1.068.873 2.464 1.225 3.798.076.284-.03 1.017-.37 1.231l-1.259.799c-.085.052-.118.147-.132.217-.042.215.037.492.205.723.494.677 1.07 1.352 1.713 2.006a17.66 17.66 0 0 0 1.996 1.701c.344.252.816.277.94.077l.8-1.263c.247-.386 1.01-.39 1.017-.39.076 0 .14.006.198.018 1.63.365 2.599.677 3.837 1.24.385.173.66 1.004.482 1.456a8.296 8.296 0 0 1-1.88 2.89 8.737 8.737 0 0 1-.752.662l-.093.072-.348.006Zm3.085-7.909a.356.356 0 0 1-.356-.356c0-3.986-3.244-7.229-7.231-7.229a.356.356 0 0 1 0-.711c4.38 0 7.942 3.562 7.942 7.94a.355.355 0 0 1-.355.356Z"/><path fill-rule="evenodd" clip-rule="evenodd" d="M21.473 16.194a.356.356 0 0 1-.356-.356 5.008 5.008 0 0 0-5.002-5.001.355.355 0 1 1 0-.711 5.72 5.72 0 0 1 5.713 5.712.355.355 0 0 1-.355.356Z"/><path fill-rule="evenodd" clip-rule="evenodd" d="M19.126 16.194a.356.356 0 0 1-.356-.356 2.657 2.657 0 0 0-2.655-2.654.355.355 0 1 1 0-.71 3.37 3.37 0 0 1 3.366 3.364c0 .197-.16.356-.355.356Z"/></svg><svg viewBox="0 0 12 18" id="tel-icon" xmlns="http://www.w3.org/2000/svg"><path fill-rule="evenodd" clip-rule="evenodd" d="M.8 17.217h10.4V.783H.8v16.434ZM11.6 18H.4a.395.395 0 0 1-.4-.39V.39C0 .176.178 0 .4 0h11.2c.222 0 .4.175.4.39v17.22c0 .215-.178.39-.4.39Z"/><path fill-rule="evenodd" clip-rule="evenodd" d="M2.4 12.52h7.2V3.391H2.4v9.13Zm7.6.783H2a.395.395 0 0 1-.4-.39V3c0-.217.179-.392.4-.392h8c.221 0 .4.175.4.392v9.912c0 .216-.179.39-.4.39ZM6.95 15.05a.94.94 0 0 1-.95.928.94.94 0 0 1-.95-.929.94.94 0 0 1 .95-.93.94.94 0 0 1 .95.93Z"/></svg><svg viewBox="0 0 40 40" id="vk-icon" xmlns="http://www.w3.org/2000/svg"><path fill-rule="evenodd" clip-rule="evenodd" d="M20 0C8.955 0 0 8.957 0 20c0 11.046 8.955 20 20 20s20-8.954 20-20C40 8.958 31.045 0 20 0Zm14.069 14.204c-.675 1.15-1.306 2.328-2.04 3.438-.803 1.215-1.727 2.345-2.55 3.547-.477.697-.39 1.16.207 1.765.654.664 1.33 1.307 1.985 1.97.944.95 1.853 1.928 2.398 3.18.439 1.207-.815 1.188-1.371 1.193-1.303.014-2.606.01-3.907 0-.455-.004-.977.023-1.343-.202-.715-.441-1.372-.993-1.998-1.56-.56-.506-1.005-1.14-1.568-1.642-.909-.812-1.592-.625-1.943.54-.188.624-.234 1.293-.314 1.944-.069.557-.391.872-.911.885-1.067.029-2.153.111-3.2-.04-2.658-.382-4.8-1.803-6.52-3.778a27.64 27.64 0 0 1-3.088-4.303c-1.347-2.333-2.504-4.774-3.74-7.171-.054-.151-.439-.832 1.176-.832 1.223 0 2.448.026 3.674 0 .767-.017 1.256.24 1.589.953.707 1.512 1.439 3.014 2.247 4.473.37.668.896 1.267 1.437 1.814.55.553 1.118.367 1.336-.383.39-1.345.394-2.719.267-4.104-.107-1.175-.333-2.232-1.85-2.359.318-.61.764-.885 1.323-.982a14.898 14.898 0 0 1 5.163-.021c.8.14 1.08.5 1.15 1.313a8.5 8.5 0 0 1 .018.874c-.027 1.304-.082 2.606-.08 3.909 0 .497.059 1.017.213 1.486.195.593.66.677 1.135.265.262-.228.512-.479.727-.75 1.363-1.72 2.379-3.639 3.19-5.668.231-.578.584-.826 1.233-.826h4.724c2.097 0 1.333.791 1.23 1.072Z"/></svg></svg>